# xmcd
#
# Track frame offsets:
#	150
#	47901
#	86342
#	105634
#	119405
#	148798
#	178663
#	236656
#	269119
#	303927
#
# Disc length: 4612 seconds
#
# Revision: 1
# Processed by: cddbd v1.5.2PL0 Copyright (c) Steve Scherf et al.
# Submitted via: audiograbber 1.83.01
#
DISCID=8e12020a
DTITLE=GARY MOORE - GUITAR MINDTRIP
DYEAR=1900
DGENRE=
TTITLE0=I LOVE YOU MORE THAN YOU 'LL EVER KNOW
TTITLE1=DRIFTIN'
TTITLE2=MERRY-GO-ROUND
TTITLE3=SUPERNATURAL
TTITLE4=LOVE THAT BURNS
TTITLE5=WHERE DID WE GO WRONG
TTITLE6=BALL AND CHAIN
TTITLE7=LOOKING FOR SOMENODY
TTITLE8=AS THE YEARS GO PASSING BY
TTITLE9=DROWNING IN TEARS
EXTD=
EXTT0=
EXTT1=
EXTT2=
EXTT3=
EXTT4=
EXTT5=
EXTT6=
EXTT7=
EXTT8=
EXTT9=
PLAYORDER=
